<svg preserveAspectRatio="none" viewBox="152.958 473.89 500 26.109" xmlns="http://www.w3.org/2000/svg">
  <defs></defs>
  <text style="font-size: 36; font-family: Roboto; white-space: pre;" transform="matrix(1, 0, 0, 1, 833.468186, 435.338294)"></text>
  <g id="change1_1" transform="matrix(1, 0, 0, 1, 622.068176, 256.523506)">
    <path d="M 30.83 233.58 C 30.83 233.356 30.83 233.13 30.83 232.906 C 29.96 232.839 29.09 232.773 28.21 232.706 C 31.67 231.75 28.01 231.003 25.8 230.215 C 25.8 230.215 25.8 230.215 25.8 230.215 C 30.72 229.875 23.95 229.622 25.58 229.308 C 25.58 229.308 25.58 229.308 25.58 229.308 C 27.26 228.896 30.74 228.544 27.06 227.952 C 25.72 227.664 24.39 227.377 23.06 227.09 C 23.06 227.09 23.06 227.09 23.06 227.09 C 23.74 226.173 19.5 225.588 18.06 224.814 C 19.26 224.776 21.3 224.713 20.72 224.507 C 19.9 224.219 17.98 224.319 16.62 224.532 C 16.62 224.532 16.62 224.532 16.62 224.532 C 15.08 224.376 15.42 223.877 12.87 223.907 C 13.56 223.682 13.64 223.462 12.75 223.246 C 12.08 223.118 11.26 223.047 10.26 223.036 C 10.06 223.038 9.87 223.043 9.68 223.048 C 9.43 222.99 9.14 222.94 8.81 222.896 C 10.19 222.887 11.6 222.915 12.92 222.813 C 13.32 222.729 13.72 222.644 14.12 222.56 C 15.06 222.585 16.05 222.79 16.94 222.596 C 19.47 222.047 19.96 221.263 23.56 220.818 C 23.86 220.782 23.19 220.407 21.9 220.294 C 21.9 220.294 21.9 220.294 21.9 220.294 C 20.81 220.058 19.38 220.093 17.93 220.138 C 17.93 220.138 17.93 220.138 17.93 220.138 C 17.93 220.138 17.93 220.138 17.93 220.138 C 15.8 219.834 13.66 220.15 11.53 220.133 C 11.53 220.133 11.53 220.133 11.53 220.133 C 6.84 220.036 2.14 219.942 -2.55 219.846 C -2.55 219.846 -2.55 219.846 -2.55 219.846 C -8.05 219.617 -13.55 219.375 -19.26 219.624 C -19.26 219.624 -19.26 219.624 -19.26 219.624 C -21.12 218.8 -25.33 219.366 -28.23 219.158 C -29.15 218.925 -30.05 218.965 -30.92 219.166 C -30.92 219.166 -30.92 219.166 -30.92 219.166 C -32.66 219.129 -33.87 218.7 -36.01 218.953 C -36.01 218.953 -36.01 218.953 -36.01 218.953 C -38.98 219.046 -42.01 218.744 -44.96 218.993 C -44.96 218.993 -44.96 218.993 -44.96 218.993 C -44.96 218.993 -44.96 218.993 -44.96 218.993 C -46.69 218.844 -48.37 218.543 -50.28 218.939 C -50.28 218.939 -50.28 218.939 -50.28 218.939 C -51.69 218.635 -53.43 218.655 -55.28 218.784 C -57.85 218.703 -60.34 218.383 -63.03 218.714 C -63.03 218.714 -63.03 218.714 -63.03 218.714 C -64.27 218.59 -65.51 218.578 -66.76 218.711 C -68.24 218.331 -69.37 218.68 -70.62 218.767 C -70.62 218.767 -70.62 218.767 -70.62 218.767 C -70.62 218.767 -70.62 218.767 -70.62 218.767 C -71.51 218.767 -72.39 218.769 -73.28 218.769 C -73.69 218.749 -74.1 218.734 -74.51 218.721 C -74.51 218.721 -74.51 218.721 -74.51 218.721 C -77.37 218.021 -81.29 218.706 -84.52 218.485 C -84.52 218.485 -84.52 218.485 -84.52 218.485 C -85.67 217.923 -87.97 218.22 -89.92 218.265 C -89.92 218.265 -89.92 218.265 -89.92 218.265 C -94.22 217.755 -98.51 217.847 -102.81 218.268 C -103.92 217.727 -106.2 218.09 -107.98 218.061 C -109.02 217.861 -110.03 217.644 -111.81 217.842 C -111.81 217.842 -111.81 217.842 -111.81 217.842 C -115.24 217.894 -118.71 217.308 -122.1 217.868 C -123.37 217.846 -124.65 217.824 -125.92 217.802 C -127.94 217.108 -129.45 217.758 -131.17 217.863 C -131.56 217.844 -131.96 217.83 -132.37 217.821 C -133.69 217.368 -135 217.327 -136.27 217.826 C -136.7 217.842 -137.13 217.856 -137.57 217.871 C -137.57 217.871 -137.57 217.871 -137.57 217.871 C -137.57 217.871 -137.57 217.871 -137.57 217.871 C -137.99 217.852 -138.4 217.833 -138.82 217.816 C -138.82 217.816 -138.82 217.816 -138.82 217.816 C -139.74 217.534 -140.59 217.208 -142.68 217.616 C -144.82 217.511 -146.95 217.172 -149.12 217.606 C -152.94 217.253 -156.79 217.423 -160.63 217.59 C -162.38 217.295 -164.14 217.293 -165.92 217.58 C -165.92 217.58 -165.92 217.58 -165.92 217.58 C -168.97 217.204 -171.88 217.505 -174.82 217.641 C -174.82 217.779 -174.82 217.915 -174.81 218.054 C -174.8 218.056 -174.8 218.059 -174.79 218.061 C -174.8 218.061 -174.8 218.061 -174.81 218.061 C -174.81 218.061 -174.81 218.054 -174.81 218.054 C -177.82 218.054 -180.82 218.054 -183.83 218.054 L -183.82 218.063 C -186.86 218.033 -190.02 218.156 -192.82 217.839 C -193.67 217.912 -194.53 217.987 -195.38 218.061 C -196.24 218.135 -197.09 218.206 -197.95 218.28 C -197.95 218.28 -197.95 218.285 -197.95 218.285 C -198.81 218.287 -199.66 218.288 -200.52 218.29 C -200.52 218.29 -200.52 218.29 -200.52 218.29 C -200.95 218.288 -201.37 218.287 -201.8 218.285 C -203.52 218.082 -205.23 218.08 -206.95 218.285 C -206.95 218.285 -206.95 218.285 -206.95 218.285 C -206.95 218.285 -206.95 218.285 -206.95 218.285 C -206.95 218.285 -206.95 218.285 -206.95 218.285 C -206.95 218.21 -206.95 218.136 -206.95 218.061 C -208.12 218.094 -207.79 217.602 -209.53 217.837 C -210.78 218.233 -213.28 217.758 -214.66 218.061 C -214.72 217.885 -214.8 217.713 -215.94 217.637 C -215.94 217.637 -215.94 217.637 -215.94 217.637 C -215.94 217.637 -215.94 217.637 -215.94 217.637 C -215.94 217.637 -216 217.58 -216 217.58 C -218.11 217.646 -220.36 217.271 -222.38 217.642 C -224.52 217.688 -226.65 217.341 -228.79 217.642 C -228.79 217.642 -228.79 217.642 -228.79 217.642 C -230.95 217.672 -233.12 217.353 -235.28 217.644 C -237.85 217.363 -240.42 217.7 -242.99 217.648 C -242.99 217.648 -242.99 217.648 -242.99 217.648 C -244.38 217.63 -245.9 217.532 -246.81 217.828 C -246.81 217.828 -246.81 217.828 -246.81 217.828 C -250.76 217.775 -254.69 217.749 -258.46 218.019 C -258.46 218.019 -258.46 218.019 -258.46 218.019 C -263.59 217.77 -268.7 217.798 -273.79 218.049 C -275.97 217.819 -278.01 218.128 -280.14 218.099 C -280.14 218.099 -280.14 218.099 -280.14 218.099 C -281.45 218.171 -282.77 218.245 -284.08 218.317 C -284.08 218.317 -284.08 218.317 -284.08 218.317 C -284.92 218.319 -285.76 218.319 -286.6 218.32 C -286.6 218.32 -286.6 218.32 -286.6 218.32 C -288.31 218.301 -290.02 218.281 -291.73 218.262 C -291.73 218.262 -291.73 218.262 -291.73 218.262 C -293.06 217.892 -294.31 218.233 -295.6 218.274 C -295.6 218.274 -295.6 218.274 -295.6 218.274 C -297.36 217.985 -299.11 217.939 -300.85 218.28 C -300.85 218.28 -300.85 218.28 -300.85 218.28 C -301.28 218.292 -301.71 218.305 -302.15 218.315 C -302.15 218.315 -302.15 218.315 -302.15 218.315 C -302.15 218.315 -302.15 218.315 -302.15 218.315 C -304.27 218.151 -306.38 218.159 -308.48 218.324 C -308.48 218.324 -308.48 218.324 -308.48 218.324 C -311.19 218.156 -313.58 218.466 -316.16 218.483 C -317.5 218.199 -318.81 218.222 -320.07 218.498 C -321.35 218.468 -322.66 218.099 -323.9 218.509 C -324.92 218.519 -325.94 218.532 -326.5 218.72 C -328.19 218.621 -329.51 218.203 -331.7 218.538 C -331.7 218.538 -331.7 218.538 -331.7 218.538 C -334.26 218.6 -337.06 218.343 -339.37 218.721 C -339.37 218.721 -339.37 218.721 -339.37 218.721 C -339.77 218.734 -340.18 218.737 -340.58 218.734 C -342.29 218.395 -344.05 218.427 -345.85 218.711 C -345.85 218.711 -345.85 218.711 -345.85 218.711 C -347.85 218.578 -349.59 218.616 -350.9 218.942 C -353.46 219.17 -356.08 218.443 -358.63 218.954 C -358.63 218.954 -358.63 218.954 -358.63 218.954 C -359.9 218.951 -361.17 218.946 -362.44 218.942 C -362.44 218.942 -362.44 218.942 -362.44 218.942 C -364.78 218.685 -365.54 219.352 -367.67 219.217 C -367.67 219.217 -367.67 219.217 -367.67 219.217 C -373.52 218.981 -378.94 219.298 -384.34 219.625 C -384.76 219.632 -385.18 219.632 -385.6 219.625 C -385.6 219.625 -385.6 219.625 -385.6 219.625 C -387.37 219.315 -389.13 219.061 -390.91 219.624 C -390.91 219.624 -390.91 219.624 -390.91 219.624 C -392.57 219.632 -394.22 219.641 -395.88 219.65 C -395.88 219.65 -395.88 219.65 -395.88 219.65 C -396.68 219.642 -397.49 219.635 -398.29 219.628 C -398.29 219.628 -398.29 219.628 -398.29 219.628 C -399.33 218.951 -401.49 219.126 -403.79 219.408 C -403.17 219.66 -401.92 219.548 -400.85 219.545 C -402.61 219.598 -404.35 219.662 -406.16 219.62 C -406.6 219.711 -407.03 219.803 -407.47 219.892 C -407.47 219.892 -407.47 219.892 -407.47 219.892 C -407.47 219.892 -407.47 219.892 -407.47 219.892 C -409.43 219.769 -410.5 220.335 -412.61 220.097 C -414.64 220.075 -416.95 220.152 -416.68 220.553 C -416.44 220.899 -414 220.667 -412.57 220.724 C -412.62 220.808 -412.66 220.892 -412.7 220.976 C -412.7 220.976 -412.7 220.976 -412.7 220.976 C -413.08 220.979 -413.45 220.992 -413.81 221.011 C -413.81 221.011 -413.81 221.011 -413.81 221.011 C -416.37 221.16 -418.94 221.311 -421.5 221.459 C -421.5 221.459 -421.5 221.459 -421.5 221.459 C -423.98 221.282 -426.32 220.955 -429.24 221.226 C -430.71 221.219 -432.3 221.151 -434.19 221.495 C -431.05 221.649 -428.85 221.808 -426.64 221.442 C -426.64 221.442 -426.64 221.442 -426.64 221.442 C -425.03 221.75 -423.24 221.957 -420.65 221.893 C -419.01 221.854 -417.72 221.959 -417.88 222.316 C -417.88 222.316 -417.88 222.316 -417.88 222.316 C -420.83 222.32 -423.77 222.321 -426.72 222.325 C -426.72 222.325 -426.72 222.325 -426.72 222.325 C -429.7 221.797 -432.72 222.328 -435.72 222.316 C -438.68 221.747 -440.37 222.167 -442.09 222.567 C -442.09 222.567 -442.09 222.567 -442.09 222.567 C -442.09 222.567 -442.09 222.567 -442.09 222.567 C -442.54 222.647 -443 222.726 -443.45 222.806 C -443.45 222.806 -443.45 222.806 -443.45 222.806 C -443.45 222.806 -443.45 222.806 -443.45 222.806 C -446.57 222.67 -448.91 222.929 -451.11 223.262 C -451.11 223.262 -451.11 223.262 -451.11 223.262 C -455.37 223.313 -458.85 223.56 -460.16 224.359 C -460.16 224.359 -460.16 224.359 -460.16 224.359 C -461.87 224.506 -463.19 224.723 -464.02 225.026 C -464.02 225.026 -464.02 225.026 -464.02 225.026 C -464.87 225.179 -465.72 225.331 -466.57 225.484 C -467.41 225.485 -468.24 225.485 -469.08 225.487 C -469.12 225.991 -469.54 226.532 -465.39 226.615 C -465.78 227.288 -466.16 227.961 -466.55 228.633 C -465.45 228.983 -464.4 229.348 -461.5 229.099 C -461.5 229.099 -461.5 229.099 -461.5 229.099 C -460.15 229.745 -456.01 229.737 -453.59 230.13 C -453.59 230.13 -453.59 230.13 -453.59 230.13 C -453.59 230.13 -453.59 230.13 -453.6 230.131 C -453.26 230.382 -452.92 230.63 -452.58 230.879 C -452.58 230.879 -452.58 230.879 -452.58 230.879 C -456.72 230.76 -456.1 231.694 -459.28 231.841 C -459.67 231.859 -457.33 232.102 -456.35 232.261 C -456.35 232.261 -456.35 232.261 -456.35 232.261 C -456.31 232.482 -456.28 232.701 -456.24 232.921 C -456.24 232.921 -456.24 232.921 -456.24 232.921 C -456.24 232.921 -456.24 232.921 -456.24 232.921 C -456.28 232.989 -456.31 233.057 -456.32 233.123 C -457.63 233.272 -458.13 233.621 -460.14 233.596 C -463.25 233.314 -462.67 233.731 -462.76 234.022 C -462.76 234.022 -462.76 234.022 -462.76 234.022 C -465.06 234.803 -465.39 235.648 -465.29 236.505 C -464.91 236.56 -464.53 236.594 -464.14 236.601 C -464.59 236.979 -463.91 237.314 -462.74 237.629 C -462.71 237.929 -462.68 238.228 -462.64 238.527 C -462.85 238.787 -462.31 239.006 -461.4 239.202 C -460.76 239.875 -461.46 240.575 -460.04 241.234 C -459.26 241.657 -459.87 242.219 -456.29 242.352 C -456.27 242.349 -456.25 242.343 -456.22 242.339 C -456.22 242.342 -456.22 242.343 -456.22 242.345 C -456.22 242.345 -456.22 242.345 -456.22 242.345 C -456.22 242.345 -456.29 242.352 -456.29 242.352 C -456.94 242.909 -456.79 243.329 -452.47 243.037 C -452.47 243.037 -452.47 243.037 -452.47 243.037 C -449.72 243.349 -446 243.047 -443.44 243.476 C -442.58 243.476 -441.73 243.476 -440.87 243.476 C -440.44 243.476 -440.01 243.476 -439.58 243.476 C -437.87 243.476 -436.15 243.476 -434.44 243.476 C -432.3 243.476 -430.16 243.476 -428.01 243.476 C -427.05 243.205 -425.49 243.245 -424.04 243.247 C -414.98 243.257 -406.06 243.023 -397.16 242.765 C -376.59 242.63 -356.02 242.495 -335.45 242.359 C -327.26 242.304 -319.01 242.368 -311.07 241.908 C -311.07 241.908 -311.07 241.908 -311.07 241.908 C -309.3 242.292 -306.77 242.04 -304.67 242.145 C -304.67 242.145 -304.67 242.145 -304.67 242.145 C -300.62 242.316 -296.99 241.894 -293.06 241.898 C -287.07 241.905 -281.09 241.912 -275.1 241.917 C -269.94 241.832 -264.79 241.746 -259.63 241.662 C -257.93 241.73 -256.22 241.797 -254.52 241.865 C -254.52 241.865 -254.52 241.865 -254.52 241.865 C -250.62 241.814 -246.61 241.929 -242.87 241.627 C -242.87 241.627 -242.87 241.627 -242.87 241.627 C -242.87 241.627 -242.87 241.627 -242.87 241.627 C -240.13 241.839 -237.5 241.881 -235.19 241.462 C -235.19 241.462 -235.19 241.462 -235.19 241.462 C -233.81 241.8 -231.91 241.793 -229.75 241.777 C -216.47 241.684 -203.18 241.586 -189.89 241.551 C -177.95 241.52 -165.99 241.554 -154.05 241.589 C -152.28 241.595 -151.82 241.472 -151.43 241.245 C -151.43 241.245 -151.43 241.245 -151.43 241.245 C -151.12 241.254 -150.81 241.262 -150.51 241.27 C -150.51 241.27 -150.51 241.27 -150.51 241.27 C -146.49 241.814 -142.04 241.438 -137.77 241.459 C -123.93 241.525 -110.09 241.609 -96.25 241.66 C -91.6 241.677 -86.96 242.004 -82.29 241.686 C -82.27 241.672 -82.25 241.66 -82.22 241.646 C -82.21 241.648 -82.19 241.648 -82.18 241.65 C -82.18 241.65 -82.29 241.686 -82.29 241.686 C -81.88 241.771 -81.45 241.931 -81.07 241.928 C -72.46 241.837 -63.82 242.131 -55.23 241.862 C -51.81 242.003 -48.39 242.001 -44.96 241.865 C -44.96 241.865 -44.96 241.865 -44.96 241.865 C -43.3 242.059 -41.5 242.133 -39.5 242.103 C -26.87 241.919 -14.76 241.295 -2.52 240.784 C -2.57 240.773 -2.62 240.763 -2.67 240.752 C -2.62 240.751 -2.58 240.751 -2.53 240.749 C -2.53 240.749 -2.53 240.749 -2.53 240.749 C -2.53 240.749 -2.51 240.784 -2.51 240.784 C 4.77 240.635 12.31 240.865 19.33 240.329 C 24.3 240.463 28.16 240.166 30.89 239.426 C 30.89 239.202 30.89 238.976 30.89 238.752 C 30.89 238.226 30.89 237.703 30.89 237.177 C 30.45 237.109 30.01 237.076 29.57 237.077 C 29.65 236.722 29.35 236.354 30.89 236.052 C 30.89 235.901 30.89 235.752 30.89 235.602 C 29.6 235.528 28.32 235.455 27.03 235.383 C 25.7 235.036 25.58 234.645 25.69 234.248 C 25.69 234.248 25.69 234.248 25.69 234.248 C 25.69 234.248 25.69 234.248 25.69 234.248 C 27.08 233.959 27.37 233.393 30.83 233.58 Z" fill="rgba(0,0,0,0.5)" style=""></path>
  </g>
</svg>